#tb 0: 1/25
0,          2,          2,        1,   152064, 0x0147a2a9
0,          3,          3,        1,   152064, 0xe2365351
0,          4,          4,        1,   152064, 0xb5f9daee
0,          5,          5,        1,   152064, 0xd60818b2
0,          7,          7,        1,   152064, 0x21b528e5
0,          8,          8,        1,   152064, 0x9c9dda18
0,          9,          9,        1,   152064, 0x387fe7de
0,         11,         11,        1,   152064, 0x8f0c5a1e
0,         12,         12,        1,   152064, 0x02409694
0,         14,         14,        1,   152064, 0x2b36a7a7
0,         15,         15,        1,   152064, 0x3c6d3863
0,         17,         17,        1,   152064, 0xaa7835e1
0,         18,         18,        1,   152064, 0x6d105fe7
0,         20,         20,        1,   152064, 0x9a348732
0,         21,         21,        1,   152064, 0x96a3af13
